<svg xmlns="http://www.w3.org/2000/svg" id="svg2" width="32" height="32" version="1.1">
<style id="current-color-scheme" type="text/css">
.ColorScheme-Text{color:#fcfcfc}
</style>
<g id="system-user-list" transform="translate(-22)">
<path id="path110" fill="currentColor" d="M45 9c-.59 0-1.133.175-1.594.469.043.464.008.922-.008 1.336a2 2 0 1 1-.39 1.36c-.185.419-.465.77-.696 1.099l-.004.004C42.784 14.288 43.797 15 45 15a2.99 2.99 0 0 0 2.998-3c0-1.662-1.337-3-2.998-3m-7 9c4.432 0 8 3.568 8 8H30c0-4.432 3.568-8 8-8m0-1c-4.986 0-9 3.717-9 8.333V27h18v-1.667C47 20.717 42.986 17 38 17m6.977-1a4.98 4.98 0 0 0-3.276 1.24c.38.156.766.336 1.143.508l.013.008c.616-.45 1.333-.756 2.118-.756 2.226 0 4.023 2.338 4.023 4H46.27c.196.34.301.648.449 1H50v-1a5 5 0 0 0-5.021-5zM38 6a4 4 0 1 1 0 8 4 4 0 0 1 0-8m0-1a5 5 0 1 0 0 10 5 5 0 0 0 0-10m-6.977 11c1.262 0 2.397.479 3.276 1.24-.405.163-.806.356-1.156.516-.616-.45-1.333-.756-2.118-.756-2.226 0-4.023 2.338-4.023 4h2.728c-.187.333-.318.69-.449 1H26v-1a5 5 0 0 1 5.021-5zm-.025-7c.59 0 1.133.175 1.594.469-.049.46-.01.927.008 1.336a2 2 0 1 0 .39 1.36c.189.402.472.77.696 1.099l.004.004C33.214 14.288 32.2 15 30.998 15A2.99 2.99 0 0 1 28 12c0-1.662 1.337-3 2.998-3" class="ColorScheme-Text"/>
<path id="path84-3" fill="none" d="M22 0v32h32V0Z"/>
</g>
</svg>
