<svg xmlns="http://www.w3.org/2000/svg" id="svg2" width="32" height="32" version="1.1">
<style id="current-color-scheme" type="text/css">
.ColorScheme-Text{color:#fcfcfc}
</style>
<g id="system-shutdown" transform="translate(-22)">
<path id="path52" fill="currentColor" d="M37 4v9h2V4h-1zm3 .17v1.02A11 11 0 0 1 49 16a11 11 0 0 1-11 11 11 11 0 0 1-11-11 11 11 0 0 1 9-10.81V4.181A12 12 0 0 0 26 16a12 12 0 0 0 12 12 12 12 0 0 0 12-12A12 12 0 0 0 40 4.17" class="ColorScheme-Text"/>
<path id="path54" fill="none" d="M22 0v32h32V0Z"/>
</g>
</svg>
