<svg xmlns="http://www.w3.org/2000/svg" id="svg2" width="32" height="32" version="1.1">
<style id="current-color-scheme" type="text/css">
.ColorScheme-Text{color:#fcfcfc}
</style>
<g id="system-reboot" transform="matrix(0 -1 -1 0 32 54)">
<path id="path32" fill="currentColor" d="M38 4a12 12 0 0 0-6.084 1.672l5.377 5.379.707-.711-4.404-4.404A11 11 0 0 1 38 5a11 11 0 0 1 11 11 11 11 0 0 1-1.404 5.352l.732.728A12 12 0 0 0 50 16 12 12 0 0 0 38 4M27.672 9.916A12 12 0 0 0 26 16a12 12 0 0 0 12 12 12 12 0 0 0 6.084-1.672l-5.377-5.379-.707.707 4.406 4.405A11 11 0 0 1 38 27a11 11 0 0 1-11-11 11 11 0 0 1 1.404-5.352Z" class="ColorScheme-Text"/>
<path id="path34" fill="none" d="M22 0v32h32V0Z"/>
</g>
</svg>
